<mxfile host="Electron" modified="2023-10-03T11:43:47.427Z" agent="Mozilla/5.0 (Macintosh; Intel Mac OS X 10_15_7) AppleWebKit/537.36 (KHTML, like Gecko) draw.io/21.6.5 Chrome/114.0.5735.243 Electron/25.3.1 Safari/537.36" etag="CpP3NKwH20--Yb__qooJ" version="21.6.5" type="device">
  <diagram name="第 1 页" id="Qja9YGvfLCMVlb_WLoeW">
    <mxGraphModel dx="683" dy="377" grid="1" gridSize="10" guides="1" tooltips="1" connect="1" arrows="1" fold="1" page="1" pageScale="1" pageWidth="827" pageHeight="1169" math="0" shadow="0">
      <root>
        <mxCell id="0" />
        <mxCell id="1" parent="0" />
        <mxCell id="koivAX4_JUBoJeQhTUaB-1" value="" style="ellipse;whiteSpace=wrap;html=1;" vertex="1" parent="1">
          <mxGeometry x="210" y="300" width="300" height="180" as="geometry" />
        </mxCell>
        <mxCell id="koivAX4_JUBoJeQhTUaB-2" style="edgeStyle=orthogonalEdgeStyle;rounded=0;orthogonalLoop=1;jettySize=auto;html=1;exitX=0.25;exitY=1;exitDx=0;exitDy=0;entryX=0.25;entryY=0;entryDx=0;entryDy=0;" edge="1" parent="1" source="koivAX4_JUBoJeQhTUaB-3" target="koivAX4_JUBoJeQhTUaB-7">
          <mxGeometry relative="1" as="geometry" />
        </mxCell>
        <mxCell id="koivAX4_JUBoJeQhTUaB-3" value="Client App" style="rounded=1;whiteSpace=wrap;html=1;" vertex="1" parent="1">
          <mxGeometry x="320" y="200" width="80" height="40" as="geometry" />
        </mxCell>
        <mxCell id="koivAX4_JUBoJeQhTUaB-4" style="edgeStyle=orthogonalEdgeStyle;rounded=0;orthogonalLoop=1;jettySize=auto;html=1;exitX=0.75;exitY=0;exitDx=0;exitDy=0;entryX=0.75;entryY=1;entryDx=0;entryDy=0;" edge="1" parent="1" source="koivAX4_JUBoJeQhTUaB-7" target="koivAX4_JUBoJeQhTUaB-3">
          <mxGeometry relative="1" as="geometry" />
        </mxCell>
        <mxCell id="koivAX4_JUBoJeQhTUaB-5" style="edgeStyle=orthogonalEdgeStyle;rounded=0;orthogonalLoop=1;jettySize=auto;html=1;entryX=0.5;entryY=0;entryDx=0;entryDy=0;" edge="1" parent="1" source="koivAX4_JUBoJeQhTUaB-7" target="koivAX4_JUBoJeQhTUaB-8">
          <mxGeometry relative="1" as="geometry" />
        </mxCell>
        <mxCell id="koivAX4_JUBoJeQhTUaB-7" value="Primary" style="rounded=1;whiteSpace=wrap;html=1;" vertex="1" parent="1">
          <mxGeometry x="320" y="320" width="80" height="40" as="geometry" />
        </mxCell>
        <mxCell id="koivAX4_JUBoJeQhTUaB-8" value="Secondary" style="rounded=1;whiteSpace=wrap;html=1;" vertex="1" parent="1">
          <mxGeometry x="240" y="400" width="80" height="40" as="geometry" />
        </mxCell>
        <mxCell id="koivAX4_JUBoJeQhTUaB-9" value="Arbiter" style="rounded=1;whiteSpace=wrap;html=1;" vertex="1" parent="1">
          <mxGeometry x="400" y="400" width="80" height="40" as="geometry" />
        </mxCell>
        <mxCell id="koivAX4_JUBoJeQhTUaB-10" value="讀" style="text;html=1;align=center;verticalAlign=middle;resizable=0;points=[];autosize=1;strokeColor=none;fillColor=none;" vertex="1" parent="1">
          <mxGeometry x="380" y="258" width="40" height="30" as="geometry" />
        </mxCell>
        <mxCell id="koivAX4_JUBoJeQhTUaB-11" value="寫" style="text;html=1;align=center;verticalAlign=middle;resizable=0;points=[];autosize=1;strokeColor=none;fillColor=none;" vertex="1" parent="1">
          <mxGeometry x="300" y="258" width="40" height="30" as="geometry" />
        </mxCell>
        <mxCell id="koivAX4_JUBoJeQhTUaB-13" value="複寫" style="text;html=1;align=center;verticalAlign=middle;resizable=0;points=[];autosize=1;strokeColor=none;fillColor=none;" vertex="1" parent="1">
          <mxGeometry x="255" y="350" width="50" height="30" as="geometry" />
        </mxCell>
        <mxCell id="koivAX4_JUBoJeQhTUaB-14" value="僅投票" style="text;html=1;align=center;verticalAlign=middle;resizable=0;points=[];autosize=1;strokeColor=none;fillColor=none;" vertex="1" parent="1">
          <mxGeometry x="410" y="370" width="60" height="30" as="geometry" />
        </mxCell>
      </root>
    </mxGraphModel>
  </diagram>
</mxfile>
